<svg width="65" height="65" viewBox="0 0 65 65" fill="none" xmlns="http://www.w3.org/2000/svg">
<path d="M55 0H10C4.47715 0 0 4.47715 0 10V55C0 60.5228 4.47715 65 10 65H55C60.5228 65 65 60.5228 65 55V10C65 4.47715 60.5228 0 55 0Z" fill="#2F2E41"/>
<path d="M32 50C28.4399 50 24.9598 48.9443 21.9997 46.9665C19.0397 44.9886 16.7325 42.1774 15.3702 38.8883C14.0078 35.5992 13.6513 31.98 14.3459 28.4884C15.0404 24.9967 16.7547 21.7894 19.2721 19.2721C21.7894 16.7547 24.9967 15.0404 28.4884 14.3459C31.98 13.6513 35.5992 14.0078 38.8883 15.3702C42.1774 16.7326 44.9886 19.0397 46.9665 21.9997C48.9443 24.9598 50 28.4399 50 32C50 36.7739 48.1036 41.3523 44.7279 44.7279C41.3523 48.1036 36.7739 50 32 50ZM32 16.25C28.8849 16.25 25.8398 17.1737 23.2498 18.9044C20.6597 20.635 18.641 23.0948 17.4489 25.9727C16.2568 28.8507 15.9449 32.0175 16.5526 35.0727C17.1603 38.1279 18.6604 40.9343 20.8631 43.1369C23.0657 45.3396 25.8721 46.8397 28.9273 47.4474C31.9825 48.0551 35.1493 47.7432 38.0273 46.5511C40.9052 45.359 43.365 43.3403 45.0956 40.7502C46.8263 38.1602 47.75 35.1151 47.75 32C47.75 27.8228 46.0906 23.8168 43.1369 20.8631C40.1832 17.9094 36.1772 16.25 32 16.25Z" fill="white"/>
<path d="M30.875 28.625H28.625C28.625 28.0283 28.3879 27.456 27.966 27.034C27.544 26.6121 26.9717 26.375 26.375 26.375C25.7783 26.375 25.206 26.6121 24.784 27.034C24.3621 27.456 24.125 28.0283 24.125 28.625H21.875C21.875 27.4315 22.3491 26.2869 23.193 25.443C24.0369 24.5991 25.1815 24.125 26.375 24.125C27.5685 24.125 28.7131 24.5991 29.557 25.443C30.4009 26.2869 30.875 27.4315 30.875 28.625Z" fill="white"/>
<path d="M42.125 28.625H39.875C39.875 28.0283 39.6379 27.456 39.216 27.034C38.794 26.6121 38.2217 26.375 37.625 26.375C37.0283 26.375 36.456 26.6121 36.034 27.034C35.6121 27.456 35.375 28.0283 35.375 28.625H33.125C33.125 27.4315 33.5991 26.2869 34.443 25.443C35.2869 24.5991 36.4315 24.125 37.625 24.125C38.8185 24.125 39.9631 24.5991 40.807 25.443C41.6509 26.2869 42.125 27.4315 42.125 28.625Z" fill="white"/>
<path d="M32 42.125C29.6131 42.125 27.3239 41.1768 25.636 39.489C23.9482 37.8011 23 35.5119 23 33.125H25.25C25.25 34.9152 25.9612 36.6321 27.227 37.898C28.4929 39.1638 30.2098 39.875 32 39.875C33.7902 39.875 35.5071 39.1638 36.773 37.898C38.0388 36.6321 38.75 34.9152 38.75 33.125H41C41 35.5119 40.0518 37.8011 38.364 39.489C36.6761 41.1768 34.3869 42.125 32 42.125Z" fill="white"/>
</svg>
