<svg width="65" height="65" viewBox="0 0 65 65" fill="none" xmlns="http://www.w3.org/2000/svg">
<path d="M55 0H10C4.47715 0 0 4.47715 0 10V55C0 60.5228 4.47715 65 10 65H55C60.5228 65 65 60.5228 65 55V10C65 4.47715 60.5228 0 55 0Z" fill="#2F2E41"/>
<path fill-rule="evenodd" clip-rule="evenodd" d="M43.8295 19.8682C43.8295 19.3887 43.4407 19 42.9612 19C42.4818 19 42.093 19.3887 42.093 19.8682V21.1706H40.7907C40.3112 21.1706 39.9225 21.5593 39.9225 22.0388C39.9225 22.5183 40.3112 22.907 40.7907 22.907H42.093V24.2093C42.093 24.6888 42.4818 25.0775 42.9612 25.0775C43.4407 25.0775 43.8295 24.6888 43.8295 24.2093V22.907H45.1318C45.6113 22.907 46 22.5183 46 22.0388C46 21.5593 45.6113 21.1706 45.1318 21.1706H43.8295V19.8682ZM39.3877 25.6124C39.8113 26.0363 39.8113 26.7234 39.3877 27.1473L37.2171 29.3178C36.7932 29.7416 36.106 29.7416 35.6823 29.3178C35.2584 28.894 35.2584 28.2068 35.6823 27.783L37.8527 25.6125C38.2766 25.1886 38.9638 25.1886 39.3877 25.6124ZM35.0465 29.9535C35.4703 30.3773 35.4703 31.0645 35.0465 31.4883L19.8527 46.6821C19.4289 47.106 18.7417 47.106 18.3179 46.6821C17.894 46.2584 17.894 45.5712 18.3179 45.1473L33.5117 29.9535C33.9355 29.5297 34.6227 29.5297 35.0465 29.9535ZM42.9612 29.8527C43.4407 29.8527 43.8295 30.2414 43.8295 30.7209V32.0233H45.1318C45.6113 32.0233 46 32.412 46 32.8915C46 33.371 45.6113 33.7597 45.1318 33.7597H43.8295V35.062C43.8295 35.5415 43.4407 35.9302 42.9612 35.9302C42.4818 35.9302 42.093 35.5415 42.093 35.062V33.7597H40.7907C40.3112 33.7597 39.9225 33.371 39.9225 32.8915C39.9225 32.412 40.3112 32.0233 40.7907 32.0233H42.093V30.7209C42.093 30.2414 42.4818 29.8527 42.9612 29.8527ZM32.9768 19.8682C32.9768 19.3887 32.5881 19 32.1086 19C31.6291 19 31.2404 19.3887 31.2404 19.8682V21.1706H29.938C29.4585 21.1706 29.0698 21.5593 29.0698 22.0388C29.0698 22.5183 29.4585 22.907 29.938 22.907H31.2404V24.2093C31.2404 24.6888 31.6291 25.0775 32.1086 25.0775C32.5881 25.0775 32.9768 24.6888 32.9768 24.2093V22.907H34.2791C34.7586 22.907 35.1473 22.5183 35.1473 22.0388C35.1473 21.5593 34.7586 21.1706 34.2791 21.1706H32.9768V19.8682Z" fill="white"/>
</svg>
