<svg width="65" height="65" viewBox="0 0 65 65" fill="none" xmlns="http://www.w3.org/2000/svg">
<path d="M55 0H10C4.47715 0 0 4.47715 0 10V55C0 60.5228 4.47715 65 10 65H55C60.5228 65 65 60.5228 65 55V10C65 4.47715 60.5228 0 55 0Z" fill="#C81B39"/>
<path d="M51.3334 21.4866L42.9 14.41L40.535 17.215L48.9683 24.2916L51.3334 21.4866ZM25.4467 17.215L23.1 14.41L14.6667 21.4683L17.0317 24.2733L25.4467 17.215ZM33 18.3333C23.8883 18.3333 16.5 25.7216 16.5 34.8333C16.5 43.945 23.87 51.3333 33 51.3333C42.1117 51.3333 49.5 43.945 49.5 34.8333C49.5 25.7216 42.1117 18.3333 33 18.3333ZM33 47.6666C25.905 47.6666 20.1667 41.9283 20.1667 34.8333C20.1667 27.7383 25.905 22 33 22C40.095 22 45.8333 27.7383 45.8333 34.8333C45.8333 41.9283 40.095 47.6666 33 47.6666ZM30.3233 37.6383L26.4183 33.7333L24.475 35.6766L30.305 41.5066L41.305 30.5066L39.3617 28.5633L30.3233 37.6383Z" fill="black"/>
</svg>
