<svg width="65" height="65" viewBox="0 0 65 65" fill="none" xmlns="http://www.w3.org/2000/svg">
<path d="M55 0H10C4.47715 0 0 4.47715 0 10V55C0 60.5228 4.47715 65 10 65H55C60.5228 65 65 60.5228 65 55V10C65 4.47715 60.5228 0 55 0Z" fill="#2F2E41"/>
<path d="M27.5044 24C27.5044 21.5172 29.5171 19.5045 31.9999 19.5045C34.4827 19.5045 36.4954 21.5172 36.4954 24C36.4954 26.4828 34.4827 28.4955 31.9999 28.4955C29.5171 28.4955 27.5044 26.4828 27.5044 24ZM31.9999 21.7545C30.7597 21.7545 29.7544 22.7599 29.7544 24C29.7544 25.2402 30.7597 26.2455 31.9999 26.2455C33.2401 26.2455 34.2454 25.2402 34.2454 24C34.2454 22.7599 33.2401 21.7545 31.9999 21.7545Z" fill="white"/>
<path d="M38.75 25.125C38.75 23.261 40.2611 21.75 42.125 21.75C43.9889 21.75 45.5 23.261 45.5 25.125C45.5 26.989 43.9889 28.5 42.125 28.5C40.2611 28.5 38.75 26.989 38.75 25.125ZM42.125 24C41.5038 24 41 24.5037 41 25.125C41 25.7463 41.5038 26.25 42.125 26.25C42.7462 26.25 43.25 25.7463 43.25 25.125C43.25 24.5037 42.7462 24 42.125 24Z" fill="white"/>
<path d="M21.875 21.75C20.011 21.75 18.5 23.261 18.5 25.125C18.5 26.989 20.011 28.5 21.875 28.5C23.739 28.5 25.25 26.989 25.25 25.125C25.25 23.261 23.739 21.75 21.875 21.75ZM20.75 25.125C20.75 24.5037 21.2537 24 21.875 24C22.4963 24 23 24.5037 23 25.125C23 25.7463 22.4963 26.25 21.875 26.25C21.2537 26.25 20.75 25.7463 20.75 25.125Z" fill="white"/>
<path d="M23.602 30.7493C23.2191 31.4112 23 32.1796 23 32.9993H18.5V38.625C18.5 40.4891 20.011 42 21.875 42C22.3519 42 22.8056 41.9012 23.2169 41.7228C23.3836 42.4684 23.6429 43.179 23.982 43.842C23.3312 44.1051 22.62 44.25 21.875 44.25C18.7684 44.25 16.25 41.7315 16.25 38.625V32.9993C16.25 31.7566 17.2574 30.7493 18.5 30.7493H23.602Z" fill="white"/>
<path d="M40.0181 43.842C40.6688 44.1051 41.3801 44.25 42.125 44.25C45.2316 44.25 47.75 41.7315 47.75 38.625V32.9993C47.75 31.7566 46.7427 30.7493 45.5 30.7493H40.3979C40.7809 31.4112 41 32.1796 41 32.9993H45.5V38.625C45.5 40.4891 43.9889 42 42.125 42C41.6483 42 41.1944 41.9012 40.7831 41.7228C40.6164 42.4684 40.3572 43.179 40.0181 43.842Z" fill="white"/>
<path d="M27.5 30.7493C26.2574 30.7493 25.25 31.7566 25.25 32.9993V39.75C25.25 43.478 28.2721 46.5 32 46.5C35.7279 46.5 38.75 43.478 38.75 39.75V32.9993C38.75 31.7566 37.7427 30.7493 36.5 30.7493H27.5ZM27.5 32.9993H36.5V39.75C36.5 42.2353 34.4853 44.25 32 44.25C29.5147 44.25 27.5 42.2353 27.5 39.75V32.9993Z" fill="white"/>
</svg>
