<svg width="65" height="65" viewBox="0 0 65 65" fill="none" xmlns="http://www.w3.org/2000/svg">
<path d="M55 0H10C4.47715 0 0 4.47715 0 10V55C0 60.5228 4.47715 65 10 65H55C60.5228 65 65 60.5228 65 55V10C65 4.47715 60.5228 0 55 0Z" fill="#2F2E41"/>
<path d="M43.625 37.25C45.9722 37.25 47.875 35.3472 47.875 33C47.875 30.6528 45.9722 28.75 43.625 28.75C41.2778 28.75 39.375 30.6528 39.375 33C39.375 35.3472 41.2778 37.25 43.625 37.25Z" fill="#FFFAFA"/>
<path d="M39.375 47.875H37.25V42.5625C37.25 41.1535 36.6903 39.8023 35.694 38.806C34.6977 37.8097 33.3465 37.25 31.9375 37.25H25.5625C24.1535 37.25 22.8023 37.8097 21.806 38.806C20.8097 39.8023 20.25 41.1535 20.25 42.5625V47.875H18.125V42.5625C18.125 40.59 18.9086 38.6982 20.3034 37.3034C21.6982 35.9086 23.59 35.125 25.5625 35.125H31.9375C33.91 35.125 35.8018 35.9086 37.1966 37.3034C38.5914 38.6982 39.375 40.59 39.375 42.5625V47.875Z" fill="#FFFAFA"/>
<path d="M28.75 20.25C29.8007 20.25 30.8278 20.5616 31.7015 21.1453C32.5751 21.7291 33.256 22.5588 33.6581 23.5295C34.0602 24.5002 34.1654 25.5684 33.9604 26.5989C33.7554 27.6294 33.2495 28.576 32.5065 29.319C31.7635 30.062 30.8169 30.5679 29.7864 30.7729C28.7559 30.9779 27.6877 30.8727 26.717 30.4706C25.7463 30.0685 24.9166 29.3876 24.3328 28.514C23.7491 27.6403 23.4375 26.6132 23.4375 25.5625C23.4375 24.1535 23.9972 22.8023 24.9935 21.806C25.9898 20.8097 27.341 20.25 28.75 20.25ZM28.75 18.125C27.279 18.125 25.841 18.5612 24.618 19.3784C23.3949 20.1957 22.4416 21.3573 21.8786 22.7163C21.3157 24.0753 21.1684 25.5708 21.4554 27.0135C21.7424 28.4562 22.4507 29.7815 23.4909 30.8216C24.531 31.8618 25.8563 32.5701 27.299 32.8571C28.7418 33.1441 30.2372 32.9968 31.5962 32.4339C32.9552 31.8709 34.1168 30.9176 34.9341 29.6946C35.7513 28.4715 36.1875 27.0335 36.1875 25.5625C36.1875 23.59 35.4039 21.6982 34.0091 20.3034C32.6143 18.9086 30.7226 18.125 28.75 18.125Z" fill="#FFFAFA"/>
</svg>
