<svg width="65" height="65" viewBox="0 0 65 65" fill="none" xmlns="http://www.w3.org/2000/svg">
<path d="M55 0H10C4.47715 0 0 4.47715 0 10V55C0 60.5228 4.47715 65 10 65H55C60.5228 65 65 60.5228 65 55V10C65 4.47715 60.5228 0 55 0Z" fill="#2F2E41"/>
<path d="M28.6231 23.6797C27.1726 23.7361 25.8626 24.2536 25.1619 24.9545C24.8365 25.28 24.3088 25.28 23.9834 24.9546C23.6579 24.6293 23.6578 24.1016 23.9832 23.7761C25.0644 22.6948 26.8239 22.0818 28.5583 22.0143C30.3041 21.9463 32.21 22.4243 33.5447 23.7593C33.8701 24.0848 33.8701 24.6124 33.5446 24.9378C33.2191 25.2633 32.6915 25.2632 32.3661 24.9378C31.4569 24.0283 30.0623 23.6237 28.6231 23.6797Z" fill="white"/>
<path fill-rule="evenodd" clip-rule="evenodd" d="M35.8201 37.1129C33.9339 38.7062 31.4957 39.6667 28.8333 39.6667C22.8502 39.6667 18 34.8164 18 28.8333C18 22.8502 22.8502 18 28.8333 18C34.8164 18 39.6667 22.8502 39.6667 28.8333C39.6667 31.4957 38.7062 33.9339 37.1129 35.8201L38.9535 35.5L47.5232 44.0697C48.1589 44.7055 48.1589 45.7362 47.5232 46.372L46.372 47.5232C45.7362 48.1589 44.7055 48.1589 44.0697 47.5232L35.5 38.9535L35.8201 37.1129ZM38 28.8333C38 33.8959 33.8959 38 28.8333 38C23.7708 38 19.6667 33.8959 19.6667 28.8333C19.6667 23.7708 23.7708 19.6667 28.8333 19.6667C33.8959 19.6667 38 23.7708 38 28.8333ZM44.0406 42.9442L38.3867 37.2902L37.4527 37.4527L37.2902 38.3867L42.9608 44.0572L44.0406 42.9442ZM44.1395 45.2359L45.2208 46.3173L46.3173 45.2208L45.2192 44.1228L44.1395 45.2359Z" fill="white"/>
</svg>
