<svg width="1080" height="1080" viewBox="0 0 1080 1080" fill="none" xmlns="http://www.w3.org/2000/svg">
<path d="M224.7 327.2C293.018 327.2 348.4 271.818 348.4 203.5C348.4 135.182 293.018 79.8 224.7 79.8C156.382 79.8 101 135.182 101 203.5C101 271.818 156.382 327.2 224.7 327.2Z" stroke="#C81B39" stroke-miterlimit="10" stroke-dasharray="12.14 12.14"/>
<path d="M900 215V566C900 572.6 894.6 578 888 578H192C185.4 578 180 572.6 180 566V215C180 208.4 185.4 203 192 203H888C894.6 203 900 208.4 900 215Z" fill="#C6DAF1"/>
<path d="M900 215V240H180V215C180 208.4 185.4 203 192 203H888C894.6 203 900 208.4 900 215Z" fill="#2A94F4"/>
<path d="M454 264H202V283H454V264Z" fill="white"/>
<path d="M766 332H514V351H766V332Z" fill="white"/>
<path d="M656 366H202V385H656V366Z" fill="white"/>
<path d="M615 298H202V317H615V298Z" fill="white"/>
<path d="M573 264H468V283H573V264Z" fill="#C81B39"/>
<path d="M454 434H202V453H454V434Z" fill="white"/>
<path d="M573 434H468V453H573V434Z" fill="#C81B39"/>
<path d="M777 298H625V317H777V298Z" fill="#C81B39"/>
<path d="M385 400H203V419H385V400Z" fill="#C81B39"/>
<path d="M500 332H202V351H500V332Z" fill="#C81B39"/>
<path d="M620.3 756.4H467.7V791.4H620.3V756.4Z" fill="#072C3D"/>
<path d="M430.8 797.9C456.8 804.4 552.7 815.1 600.4 820.1C611 821.2 619.2 822.1 623.8 822.5C626.3 822.8 627.7 822.9 627.7 822.9C627.7 822.9 640.2 822.1 655.4 821.3C669.4 820.5 701.7 820.7 712.9 820.3C717.1 820.2 718.5 814.5 714.9 812.4C708.3 808.6 680.6 797.3 667 795.6C658.6 794.6 649.4 787 642.1 782.8C636.5 779.5 630.1 785.2 625 787.1C622.5 788 620.7 793.6 617.9 793.8C617.2 793.9 616.5 793.9 615.8 794C612.3 794.2 608.6 794 605.1 793.6C604.1 793.5 603.2 793.3 602.2 793.2C591.1 791.5 581.9 787.9 581.9 787.9C547.9 770.3 473.1 723.2 414.9 735.6C414.4 735.7 413.9 735.8 413.5 735.9C413 736 412.5 736.1 412.1 736.2C353.5 751.1 395.8 789.1 430.8 797.9Z" fill="#FCD2B1"/>
<path d="M430.8 797.9C456.8 804.4 552.7 815.1 600.4 820.1L609.1 769.8C607.4 769.5 605.6 769.4 603.8 769.4C585.4 769.2 567.2 765.4 550.2 758.2C511.6 741.7 457 725.1 412 736.3C353.5 751.1 395.8 789.1 430.8 797.9Z" fill="#2A94F4"/>
<path d="M639.1 784C639.1 779 645.1 776 645.1 776L691.7 793.2L717.1 807L722.1 814L716.1 818.5L664.1 811L647.1 801L639.1 784Z" fill="#0E538C"/>
<path d="M615.7 794L623.8 822.5C626.3 822.8 627.7 822.9 627.7 822.9C627.7 822.9 640.2 822.1 655.4 821.3C669.4 820.5 701.7 820.7 712.9 820.3C717.1 820.2 718.5 814.5 714.9 812.4C708.3 808.6 680.6 797.3 667 795.6C658.6 794.6 649.4 787 642.1 782.8C636.5 779.5 630.1 785.2 625 787.1C622.5 788 620.7 793.6 617.9 793.8C617.1 794 616.4 794 615.7 794Z" fill="#0E538C"/>
<path d="M650.3 625.3L644 578.7C640.8 555.3 622.3 537.9 600.4 537.9H558C551.9 537.9 541.9 537.9 535.8 537.9H493.4C471.5 537.9 453 555.3 449.8 578.7L443.5 625.3C438.6 661.9 459.1 696.9 491.9 707.6L535.7 721.9C541.8 721.9 546.8 716.5 546.8 709.9C546.8 716.5 551.8 721.9 557.9 721.9L601.7 707.6C634.6 696.9 655.2 661.9 650.3 625.3Z" fill="#2A94F4"/>
<path d="M592.469 496.673C594.243 492.03 592.545 487.068 588.675 485.59C584.806 484.111 580.232 486.677 578.458 491.32C576.684 495.963 578.382 500.925 582.251 502.403C586.12 503.882 590.695 501.316 592.469 496.673Z" fill="#FFE3CA"/>
<path d="M631.4 750.7L464.7 745.1L454.2 600.4H644.1L631.4 750.7Z" fill="#2A94F4"/>
<path d="M528.4 523.3L533.9 556.7L534.3 557.5C539.3 568.1 554.5 567.6 558.8 556.7L563.3 522.8L528.4 523.3Z" fill="#FCD2B1"/>
<path d="M585.3 480.5C585.3 523 568.3 531.4 547.4 531.4C526.5 531.4 509.5 523.1 509.5 480.5C509.5 457.4 526.5 438.7 547.4 438.7C568.3 438.6 585.3 457.4 585.3 480.5Z" fill="#FFE3CA"/>
<path d="M524.8 469.9C541.8 479.2 560.3 485.8 579.4 489.4C586.9 490.8 604.3 481.9 609 476C614.1 469.7 595 470 591 463C585.3 453.1 579.6 440.1 570 434C560.4 427.9 546.2 433.8 535 436C525 438 522 434.6 514 441C507.4 446.3 503.3 456.7 501 464.8C498.7 472.9 501.7 490.1 510 492C512 480 516.8 476.9 519 471L524.8 469.9Z" fill="#0E538C"/>
<path d="M513.678 502.414C517.548 500.935 519.246 495.973 517.472 491.33C515.698 486.687 511.123 484.121 507.254 485.6C503.385 487.078 501.687 492.04 503.461 496.683C505.235 501.326 509.809 503.892 513.678 502.414Z" fill="#FFE3CA"/>
<path d="M537.9 507H518.9C515.8 507 513.3 504.5 513.3 501.4V495.7C513.3 492.6 515.8 490.1 518.9 490.1H537.9C541 490.1 543.5 492.6 543.5 495.7V501.4C543.5 504.5 541 507 537.9 507Z" stroke="#0E538C" stroke-width="2" stroke-miterlimit="10"/>
<path d="M575.9 507H556.9C553.8 507 551.3 504.5 551.3 501.4V495.7C551.3 492.6 553.8 490.1 556.9 490.1H575.9C579 490.1 581.5 492.6 581.5 495.7V501.4C581.5 504.5 579 507 575.9 507Z" stroke="#0E538C" stroke-width="2" stroke-miterlimit="10"/>
<path d="M543.5 498.5C546.3 497 548.3 496 551.3 498.5" stroke="#0E538C" stroke-width="2" stroke-miterlimit="10"/>
<path d="M626.4 768.8H465.7C460.8 768.8 456.7 764.8 456.7 759.8L452.2 651.1C452.2 646.2 456.2 642.1 461.2 642.1H630.9C635.8 642.1 639.9 646.1 639.9 651.1L635.4 759.8C635.3 764.8 631.3 768.8 626.4 768.8Z" fill="#C81B39"/>
<path d="M545.7 722.5C555.089 722.5 562.7 714.889 562.7 705.5C562.7 696.111 555.089 688.5 545.7 688.5C536.311 688.5 528.7 696.111 528.7 705.5C528.7 714.889 536.311 722.5 545.7 722.5Z" fill="white"/>
<path d="M674.3 797.9C648.3 804.4 552.4 815.1 504.7 820.1C494.1 821.2 485.9 822.1 481.3 822.5C478.8 822.8 477.4 822.9 477.4 822.9C477.4 822.9 464.9 822.1 449.7 821.3C435.7 820.5 403.4 820.7 392.2 820.3C388 820.2 386.6 814.5 390.2 812.4C396.8 808.6 424.5 797.3 438.1 795.6C446.5 794.6 455.7 787 463 782.8C468.6 779.5 475 785.2 480.1 787.1C482.6 788 484.4 793.6 487.2 793.8C487.9 793.9 488.6 793.9 489.3 794C492.8 794.2 496.5 794 500 793.6C501 793.5 501.9 793.3 502.9 793.2C514 791.5 523.2 787.9 523.2 787.9C557.2 770.3 632 723.2 690.2 735.6C690.7 735.7 691.2 735.8 691.6 735.9C692.1 736 692.6 736.1 693 736.2C751.6 751.1 709.3 789.1 674.3 797.9Z" fill="#FCD2B1"/>
<path d="M674.3 797.9C648.3 804.4 552.4 815.1 504.7 820.1L496 769.8C497.7 769.5 499.5 769.4 501.3 769.4C519.7 769.2 537.9 765.4 554.9 758.2C593.5 741.7 648.1 725.1 693.1 736.3C751.6 751.1 709.3 789.1 674.3 797.9Z" fill="#2A94F4"/>
<path d="M466 784C466 779 460 776 460 776L413.4 793.2L388 807L383 814L389 818.5L441 811L458 801L466 784Z" fill="#0E538C"/>
<path d="M489.4 794L481.3 822.5C478.8 822.8 477.4 822.9 477.4 822.9C477.4 822.9 464.9 822.1 449.7 821.3C435.7 820.5 403.4 820.7 392.2 820.3C388 820.2 386.6 814.5 390.2 812.4C396.8 808.6 424.5 797.3 438.1 795.6C446.5 794.6 455.7 787 463 782.8C468.6 779.5 475 785.2 480.1 787.1C482.6 788 484.4 793.6 487.2 793.8C488.1 794 488.8 794 489.4 794Z" fill="#0E538C"/>
<path d="M937 132H739C715.4 132 696 153.4 696 179.5C696 203.4 712.1 223.3 732.9 226.5L733.5 247.4L754.2 227H937C960.6 227 980 205.6 980 179.5C980 153.4 960.7 132 937 132Z" fill="#C81B39"/>
<path d="M787 196C795.284 196 802 189.284 802 181C802 172.716 795.284 166 787 166C778.716 166 772 172.716 772 181C772 189.284 778.716 196 787 196Z" fill="white"/>
<path d="M838 196C846.284 196 853 189.284 853 181C853 172.716 846.284 166 838 166C829.716 166 823 172.716 823 181C823 189.284 829.716 196 838 196Z" fill="white"/>
<path d="M889 196C897.284 196 904 189.284 904 181C904 172.716 897.284 166 889 166C880.716 166 874 172.716 874 181C874 189.284 880.716 196 889 196Z" fill="white"/>
<path d="M220.5 658C264.959 658 301 621.959 301 577.5C301 533.041 264.959 497 220.5 497C176.041 497 140 533.041 140 577.5C140 621.959 176.041 658 220.5 658Z" fill="#C81B39"/>
<path d="M164.8 582.5V578.1C164.8 575.9 166.1 574 168.1 573.2L190.3 564.4C193.8 563 197.5 565.6 197.5 569.3C197.5 571.6 196.1 573.6 193.9 574.3L176 580.3L193.9 586.3C196.1 587 197.5 589 197.5 591.3V591.4C197.5 595.1 193.7 597.7 190.3 596.3L168.1 587.5C166.2 586.6 164.8 584.7 164.8 582.5Z" fill="white"/>
<path d="M232.4 550.9C235.8 550.9 238 554.4 236.5 557.5L211.7 609.4C210.9 611 209.3 612 207.6 612C204.2 612 202 608.5 203.5 605.4L228.3 553.5C229.1 551.9 230.7 550.9 232.4 550.9Z" fill="white"/>
<path d="M247 586.4L264.9 580.4L247 574.4C244.9 573.7 243.4 571.7 243.4 569.4V569.3C243.4 565.6 247.2 563 250.6 564.4L272.8 573.2C274.8 574 276.1 575.9 276.1 578.1V582.5C276.1 584.7 274.8 586.6 272.8 587.4L250.6 596.2C247.1 597.6 243.4 595 243.4 591.3C243.4 589.1 244.9 587.1 247 586.4Z" fill="white"/>
<path d="M974.7 714.1C966.5 675.6 941 641.2 906.7 622C925.1 656.7 947 689.4 972.2 719.6L974.7 714.1Z" fill="#1A87D8"/>
<path d="M983.9 728.5C951.2 682.8 934.8 625.6 938.3 569.5C959.5 621.3 975.5 675.2 986 730.1L983.9 728.5Z" fill="#2A94F4"/>
<path d="M974.5 730.1C973.5 702 972.5 673.6 976.9 645.8C981.3 618 991.5 590.5 1010.4 569.6C1013.3 627.2 999.3 685.5 970.8 735.6L974.5 730.1Z" fill="#1A87D8"/>
<path d="M975.9 732.6C957.5 679.4 960.5 619.2 984.1 568.1C998.9 621.5 985.8 678.1 972.7 731.9L975.9 732.6Z" fill="#CCE9FF"/>
<path d="M978.3 712.9C983.4 666.2 1014.5 623.3 1057.3 604C1040 650.5 1010.3 692.4 972.2 724.3L978.3 712.9Z" fill="#2A94F4"/>
<path d="M1022.4 704.7L1017.1 795.3C1017.1 799.7 1013.5 803.2 1009.2 803.2H946.4C942 803.2 938.5 799.6 938.5 795.3L937.3 774.8L933.2 704.7C933.2 700.3 936.8 696.8 941.1 696.8H1014.5C1017.4 696.8 1019.9 698.3 1021.3 700.6C1021.9 701.8 1022.4 703.2 1022.4 704.7Z" fill="#C81B39"/>
<path d="M1022.4 704.7L1017.1 795.3C1017.1 799.7 1013.5 803.2 1009.2 803.2H946.4C942 803.2 938.5 799.6 938.5 795.3L937.3 774.8C966.6 766.4 996.8 730.2 1021.3 700.6C1021.9 701.8 1022.4 703.2 1022.4 704.7Z" fill="#C81B39"/>
<path d="M91.2 744.9C85.8 719.7 69.2 697.2 46.7 684.6C58.7 707.3 73.1 728.7 89.6 748.5L91.2 744.9Z" fill="#1A87D8"/>
<path d="M97.2 754.3C75.8 724.4 65.1 687 67.4 650.3C81.3 684.2 91.8 719.5 98.6 755.5L97.2 754.3Z" fill="#2A94F4"/>
<path d="M91.1 755.4C90.4 737 89.8 718.4 92.7 700.2C95.6 682 102.3 664 114.7 650.3C116.6 688 107.5 726.2 88.7 759L91.1 755.4Z" fill="#1A87D8"/>
<path d="M92 757C79.9 722.2 81.9 682.7 97.4 649.3C107.1 684.2 98.5 721.3 89.9 756.5L92 757Z" fill="#CCE9FF"/>
<path d="M93.6 744.1C96.9 713.6 117.3 685.4 145.3 672.8C133.9 703.3 114.5 730.7 89.6 751.6L93.6 744.1Z" fill="#2A94F4"/>
<path d="M122.4 738.7L118.9 798C118.9 800.9 116.6 803.2 113.7 803.2H72.6C69.7 803.2 67.4 800.9 67.4 798L66.6 784.6L64 738.7C64 735.8 66.3 733.5 69.2 733.5H117.3C119.2 733.5 120.8 734.5 121.7 736C122.2 736.8 122.4 737.8 122.4 738.7Z" fill="#C81B39"/>
<path d="M122.4 738.7L118.9 798C118.9 800.9 116.6 803.2 113.7 803.2H72.6C69.7 803.2 67.4 800.9 67.4 798L66.6 784.6C85.8 779.1 105.6 755.4 121.6 736C122.2 736.8 122.4 737.8 122.4 738.7Z" fill="#C81B39"/>
</svg>
